<svg width="100" height="100" viewBox="0 0 100 100" fill="none" xmlns="http://www.w3.org/2000/svg">
<g clip-path="url(#clip0_969_1085)">
<path d="M12.5 79.1656C18.2007 75.8743 24.6674 74.1416 31.25 74.1416C37.8326 74.1416 44.2993 75.8743 50 79.1656C55.7007 75.8743 62.1674 74.1416 68.75 74.1416C75.3326 74.1416 81.7993 75.8743 87.5 79.1656" stroke="black" stroke-width="1.5" stroke-linecap="round" stroke-linejoin="round"/>
<path d="M12.5 24.9987C18.2007 21.7073 24.6674 19.9746 31.25 19.9746C37.8326 19.9746 44.2993 21.7073 50 24.9987C55.7007 21.7073 62.1674 19.9746 68.75 19.9746C75.3326 19.9746 81.7993 21.7073 87.5 24.9987" stroke="black" stroke-width="1.5" stroke-linecap="round" stroke-linejoin="round"/>
<path d="M12.5 25V79.1667" stroke="black" stroke-width="1.5" stroke-linecap="round" stroke-linejoin="round"/>
<path d="M50 25V79.1667" stroke="black" stroke-width="1.5" stroke-linecap="round" stroke-linejoin="round"/>
<path d="M87.5 25V79.1667" stroke="black" stroke-width="1.5" stroke-linecap="round" stroke-linejoin="round"/>
</g>
<defs>
<clipPath id="clip0_969_1085">
<rect width="100" height="100" fill="white"/>
</clipPath>
</defs>
</svg>
