<svg width="80" height="80" viewBox="0 0 80 80" fill="none" xmlns="http://www.w3.org/2000/svg">
<g clip-path="url(#clip0_969_876)">
<path d="M10 40C10 43.9397 10.776 47.8407 12.2836 51.4805C13.7913 55.1203 16.001 58.4274 18.7868 61.2132C21.5726 63.999 24.8797 66.2087 28.5195 67.7164C32.1593 69.224 36.0603 70 40 70C43.9397 70 47.8407 69.224 51.4805 67.7164C55.1203 66.2087 58.4274 63.999 61.2132 61.2132C63.999 58.4274 66.2087 55.1203 67.7164 51.4805C69.224 47.8407 70 43.9397 70 40C70 36.0603 69.224 32.1593 67.7164 28.5195C66.2087 24.8797 63.999 21.5726 61.2132 18.7868C58.4274 16.001 55.1203 13.7913 51.4805 12.2836C47.8407 10.776 43.9397 10 40 10C36.0603 10 32.1593 10.776 28.5195 12.2836C24.8797 13.7913 21.5726 16.001 18.7868 18.7868C16.001 21.5726 13.7913 24.8797 12.2836 28.5195C10.776 32.1593 10 36.0603 10 40Z" stroke="black" stroke-width="1.5" stroke-linecap="round" stroke-linejoin="round"/>
<path d="M49.3333 30.0002C48.7295 28.9527 47.8522 28.0892 46.7953 27.502C45.7384 26.9149 44.5417 26.6262 43.3333 26.6669H36.6667C34.8986 26.6669 33.2029 27.3692 31.9526 28.6195C30.7024 29.8697 30 31.5654 30 33.3335C30 35.1016 30.7024 36.7973 31.9526 38.0476C33.2029 39.2978 34.8986 40.0002 36.6667 40.0002H43.3333C45.1014 40.0002 46.7971 40.7026 48.0474 41.9528C49.2976 43.2031 50 44.8988 50 46.6669C50 48.435 49.2976 50.1307 48.0474 51.3809C46.7971 52.6311 45.1014 53.3335 43.3333 53.3335H36.6667C35.4583 53.3742 34.2616 53.0855 33.2047 52.4984C32.1478 51.9112 31.2705 51.0477 30.6667 50.0002" stroke="black" stroke-width="1.5" stroke-linecap="round" stroke-linejoin="round"/>
<path d="M40 23.333V56.6663" stroke="black" stroke-width="1.5" stroke-linecap="round" stroke-linejoin="round"/>
</g>
<defs>
<clipPath id="clip0_969_876">
<rect width="80" height="80" fill="white"/>
</clipPath>
</defs>
</svg>
