<svg width="16" height="15" viewBox="0 0 16 15" fill="none" xmlns="http://www.w3.org/2000/svg">
<path fill-rule="evenodd" clip-rule="evenodd" d="M5.26154 0.045C6.04502 0.00818181 6.29483 0 8.29061 0C10.2864 0 10.5362 0.00886363 11.319 0.045C12.1018 0.0811364 12.6362 0.208636 13.1037 0.393409C13.5933 0.582273 14.0375 0.8775 14.4049 1.25932C14.7789 1.63364 15.0674 2.08636 15.2518 2.58682C15.4335 3.06409 15.5577 3.60955 15.5938 4.40727C15.6298 5.20841 15.6379 5.46341 15.6379 7.5C15.6379 9.53727 15.6292 9.79227 15.5938 10.592C15.5584 11.3898 15.4335 11.9352 15.2518 12.4125C15.0674 12.913 14.7784 13.3665 14.4049 13.7414C14.0375 14.1232 13.5933 14.4177 13.1037 14.6059C12.6362 14.7914 12.1018 14.9182 11.3203 14.955C10.5362 14.9918 10.2864 15 8.29061 15C6.29483 15 6.04502 14.9911 5.26154 14.955C4.48006 14.9189 3.94571 14.7914 3.47816 14.6059C2.98785 14.4177 2.5436 14.1227 2.17636 13.7414C1.80257 13.3668 1.51332 12.9136 1.32876 12.4132C1.14775 11.9359 1.02351 11.3905 0.987443 10.5927C0.951375 9.79159 0.943359 9.53659 0.943359 7.5C0.943359 5.46273 0.952042 5.20773 0.987443 4.40864C1.02284 3.60955 1.14775 3.06409 1.32876 2.58682C1.51359 2.08642 1.80307 1.63317 2.17703 1.25864C2.54375 0.87716 2.98755 0.581893 3.47749 0.393409C3.94505 0.208636 4.48006 0.0818182 5.26154 0.045ZM11.2596 1.395C10.4848 1.35886 10.2523 1.35136 8.29061 1.35136C6.32889 1.35136 6.09645 1.35886 5.32165 1.395C4.60496 1.42841 4.21623 1.55045 3.95707 1.65341C3.61442 1.78977 3.36929 1.95136 3.11213 2.21386C2.86837 2.45594 2.68077 2.75065 2.56309 3.07636C2.46224 3.34091 2.34268 3.73773 2.30995 4.46932C2.27455 5.26023 2.2672 5.4975 2.2672 7.5C2.2672 9.5025 2.27455 9.73977 2.30995 10.5307C2.34268 11.2623 2.46224 11.6591 2.56309 11.9236C2.68065 12.2489 2.86834 12.5441 3.11213 12.7861C3.34925 13.035 3.63846 13.2266 3.95707 13.3466C4.21623 13.4495 4.60496 13.5716 5.32165 13.605C6.09645 13.6411 6.32823 13.6486 8.29061 13.6486C10.253 13.6486 10.4848 13.6411 11.2596 13.605C11.9763 13.5716 12.365 13.4495 12.6242 13.3466C12.9668 13.2102 13.2119 13.0486 13.4691 12.7861C13.7129 12.5441 13.9006 12.2489 14.0181 11.9236C14.119 11.6591 14.2385 11.2623 14.2713 10.5307C14.3067 9.73977 14.314 9.5025 14.314 7.5C14.314 5.4975 14.3067 5.26023 14.2713 4.46932C14.2385 3.73773 14.119 3.34091 14.0181 3.07636C13.8845 2.72659 13.7262 2.47636 13.4691 2.21386C13.2319 1.96505 12.9432 1.77355 12.6242 1.65341C12.365 1.55045 11.9763 1.42841 11.2596 1.395ZM7.35217 9.81205C7.87626 10.0347 8.45985 10.0648 9.00325 9.89708C9.54664 9.72936 10.0161 9.37426 10.3315 8.89244C10.647 8.41062 10.7887 7.83196 10.7326 7.2553C10.6765 6.67864 10.426 6.13975 10.0239 5.73068C9.76757 5.46919 9.45763 5.26896 9.1164 5.14442C8.77516 5.01987 8.41112 4.97411 8.05049 5.01042C7.68985 5.04673 7.34158 5.16421 7.03076 5.35441C6.71994 5.5446 6.45429 5.80278 6.25295 6.11035C6.05161 6.41793 5.91958 6.76724 5.86636 7.13316C5.81315 7.49907 5.84007 7.87247 5.94519 8.22649C6.05032 8.5805 6.23103 8.90633 6.47432 9.18049C6.7176 9.45466 7.01741 9.67035 7.35217 9.81205ZM5.62022 4.77409C5.9709 4.41612 6.38722 4.13216 6.8454 3.93843C7.30359 3.7447 7.79467 3.64498 8.29061 3.64498C8.78655 3.64498 9.27763 3.7447 9.73582 3.93843C10.194 4.13216 10.6103 4.41612 10.961 4.77409C11.3117 5.13206 11.5899 5.55704 11.7796 6.02475C11.9694 6.49246 12.0671 6.99375 12.0671 7.5C12.0671 8.00625 11.9694 8.50754 11.7796 8.97525C11.5899 9.44296 11.3117 9.86794 10.961 10.2259C10.2528 10.9489 9.2922 11.355 8.29061 11.355C7.28902 11.355 6.32845 10.9489 5.62022 10.2259C4.91199 9.50295 4.51411 8.52241 4.51411 7.5C4.51411 6.47759 4.91199 5.49705 5.62022 4.77409ZM12.9047 4.21909C12.9916 4.13541 13.0612 4.03478 13.1093 3.92316C13.1574 3.81155 13.1831 3.69121 13.1848 3.56927C13.1866 3.44734 13.1643 3.32628 13.1194 3.21328C13.0745 3.10028 13.0078 2.99762 12.9234 2.91139C12.8389 2.82516 12.7383 2.75711 12.6276 2.71126C12.5169 2.66542 12.3983 2.64271 12.2789 2.64449C12.1594 2.64627 12.0415 2.67249 11.9322 2.72161C11.8228 2.77073 11.7243 2.84175 11.6423 2.93045C11.4829 3.10297 11.3956 3.33213 11.399 3.56927C11.4024 3.80641 11.4961 4.03287 11.6604 4.20057C11.8247 4.36828 12.0466 4.46402 12.2789 4.46748C12.5112 4.47093 12.7357 4.38183 12.9047 4.21909Z" fill="black"/>
</svg>
