<svg width="76" height="76" viewBox="0 0 76 76" fill="none" xmlns="http://www.w3.org/2000/svg">
<g clip-path="url(#clip0_969_822)">
<path d="M15.834 22.1667C15.834 25.5261 17.1685 28.7479 19.544 31.1234C21.9194 33.4988 25.1412 34.8333 28.5007 34.8333C31.8601 34.8333 35.0819 33.4988 37.4573 31.1234C39.8328 28.7479 41.1673 25.5261 41.1673 22.1667C41.1673 18.8073 39.8328 15.5854 37.4573 13.21C35.0819 10.8345 31.8601 9.5 28.5007 9.5C25.1412 9.5 21.9194 10.8345 19.544 13.21C17.1685 15.5854 15.834 18.8073 15.834 22.1667Z" stroke="black" stroke-width="1.5" stroke-linecap="round" stroke-linejoin="round"/>
<path d="M9.5 66.5V60.1667C9.5 56.8073 10.8345 53.5854 13.21 51.21C15.5854 48.8345 18.8073 47.5 22.1667 47.5H34.8333C38.1927 47.5 41.4146 48.8345 43.79 51.21C46.1655 53.5854 47.5 56.8073 47.5 60.1667V66.5" stroke="black" stroke-width="1.5" stroke-linecap="round" stroke-linejoin="round"/>
<path d="M50.666 9.91406C53.3907 10.6117 55.8056 12.1963 57.5302 14.418C59.2548 16.6398 60.1908 19.3724 60.1908 22.1849C60.1908 24.9974 59.2548 27.73 57.5302 29.9517C55.8056 32.1735 53.3907 33.7581 50.666 34.4557" stroke="black" stroke-width="1.5" stroke-linecap="round" stroke-linejoin="round"/>
<path d="M66.5 66.5016V60.1682C66.4839 57.3726 65.5434 54.6608 63.825 52.4555C62.1066 50.2502 59.7069 48.6754 57 47.9766" stroke="black" stroke-width="1.5" stroke-linecap="round" stroke-linejoin="round"/>
</g>
<defs>
<clipPath id="clip0_969_822">
<rect width="76" height="76" fill="white"/>
</clipPath>
</defs>
</svg>
