<svg width="15" height="12" viewBox="0 0 15 12" fill="none" xmlns="http://www.w3.org/2000/svg">
<path d="M14.7375 1.42545C14.1971 1.65977 13.609 1.82841 13.0033 1.89409C13.6322 1.51853 14.1031 0.925213 14.3278 0.225451C13.7376 0.578331 13.0912 0.825776 12.417 0.956811C12.1352 0.654018 11.7945 0.4128 11.4159 0.248186C11.0373 0.0835725 10.6291 -0.000908491 10.2166 7.36757e-06C8.5478 7.36757e-06 7.20568 1.35977 7.20568 3.02841C7.20568 3.26273 7.23393 3.49705 7.27985 3.72249C4.78102 3.59113 2.55239 2.39113 1.07075 0.553853C0.800784 1.01737 0.659311 1.54514 0.661052 2.08225C0.661052 3.13314 1.1926 4.05977 2.00318 4.60474C1.52549 4.58583 1.059 4.45385 0.641627 4.21953V4.25681C0.641627 5.72841 1.67648 6.94793 3.05569 7.22841C2.79672 7.29602 2.53033 7.33061 2.26277 7.33136C2.06675 7.33136 1.88133 7.31184 1.69414 7.28521C2.07558 8.48521 3.18637 9.35681 4.50907 9.38521C3.47422 10.2 2.17801 10.6793 0.770542 10.6793C0.51801 10.6793 0.284904 10.6704 0.0429688 10.642C1.37803 11.503 2.96209 12 4.668 12C10.206 12 13.2364 7.38817 13.2364 3.38521C13.2364 3.25385 13.2364 3.12249 13.2276 2.99113C13.8139 2.55977 14.3278 2.02545 14.7375 1.42545Z" fill="white"/>
</svg>
